<svg xmlns="http://www.w3.org/2000/svg" version="1.1">
<line x1="250" y1="250" x2="250.0" y2="450.0" style="stroke:rgb(0,0,0);stroke-width:2" />
<line x1="250" y1="250" x2="350.0" y2="423.20508075688775" style="stroke:rgb(0,0,0);stroke-width:2" />
<line x1="250" y1="250" x2="423.2050807568877" y2="350.0" style="stroke:rgb(0,0,0);stroke-width:2" />
<line x1="250" y1="250" x2="450.0" y2="250.0" style="stroke:rgb(0,0,0);stroke-width:2" />
<line x1="250" y1="250" x2="423.20508075688775" y2="150.00000000000006" style="stroke:rgb(0,0,0);stroke-width:2" />
<line x1="250" y1="250" x2="350.00000000000006" y2="76.7949192431123" style="stroke:rgb(0,0,0);stroke-width:2" />
<line x1="250" y1="250" x2="250.00000000000003" y2="50.0" style="stroke:rgb(0,0,0);stroke-width:2" />
<line x1="250" y1="250" x2="150.00000000000006" y2="76.79491924311225" style="stroke:rgb(0,0,0);stroke-width:2" />
<line x1="250" y1="250" x2="76.7949192431123" y2="149.99999999999991" style="stroke:rgb(0,0,0);stroke-width:2" />
<line x1="250" y1="250" x2="50.0" y2="249.99999999999997" style="stroke:rgb(0,0,0);stroke-width:2" />
<line x1="250" y1="250" x2="76.79491924311219" y2="349.9999999999999" style="stroke:rgb(0,0,0);stroke-width:2" />
<line x1="250" y1="250" x2="149.99999999999991" y2="423.2050807568877" style="stroke:rgb(0,0,0);stroke-width:2" />

<polygon points="250.0,253.82825542155234 319.35135347910216,370.1200677994736 368.13250521451846,318.20383368564717 257.7318339582842,250.0 296.8108542931023,222.97374067288106 276.1402127908648,204.72382332556037 250.0,181.45284077249778 207.40274768248435,176.21939472323174 88.92479672780877,157.00318803102658 68.37736672917424,249.99999999999997 245.39348097346,252.659575 250.0,250.0 " style="fill:rgb(127,201,127);stroke:black;stroke-width:1" />
<polygon points="250.0,250.0 316.6425306930857,365.4282491053928 360.0589392908871,313.54255822631836 250.2347685653511,250.0 296.8108542931023,222.97374067288106 276.1402127908648,204.72382332556037 250.0,200.1644925637233 219.68189452899622,197.48750093498944 249.04352112343193,249.44777666313922 68.5127956703904,249.99999999999997 250.0,250.0 250.0,250.0 " style="fill:rgb(255,255,153);stroke:black;stroke-width:1" />
<text x="240.0" y="475.0" fill="black">rz</text>
<text x="352.5" y="444.8557158514987" fill="black">vx</text>
<text x="434.85571585149864" y="362.5" fill="black">vy</text>
<text x="465.0" y="250.0" fill="black">vz</text>
<text x="434.8557158514987" y="137.50000000000006" fill="black">m1</text>
<text x="352.50000000000006" y="55.14428414850133" fill="black">m2</text>
<text x="240.00000000000003" y="25.0" fill="black">r1</text>
<text x="127.50000000000006" y="55.14428414850127" fill="black">r2</text>
<text x="35.14428414850133" y="137.4999999999999" fill="black">phi1</text>
<text x="5.0" y="249.99999999999997" fill="black">phi2</text>
<text x="25.144284148501214" y="362.49999999999983" fill="black">theta1</text>
<text x="107.49999999999989" y="444.85571585149864" fill="black">theta2</text>

</svg>
