<svg xmlns="http://www.w3.org/2000/svg" version="1.1">
<line x1="250" y1="250" x2="250.0" y2="450.0" style="stroke:rgb(0,0,0);stroke-width:2" />
<line x1="250" y1="250" x2="318.40402866513375" y2="437.9385241571817" style="stroke:rgb(0,0,0);stroke-width:2" />
<line x1="250" y1="250" x2="378.55752193730785" y2="403.2088886237956" style="stroke:rgb(0,0,0);stroke-width:2" />
<line x1="250" y1="250" x2="423.2050807568877" y2="350.0" style="stroke:rgb(0,0,0);stroke-width:2" />
<line x1="250" y1="250" x2="446.9615506024416" y2="284.7296355333861" style="stroke:rgb(0,0,0);stroke-width:2" />
<line x1="250" y1="250" x2="446.9615506024416" y2="215.27036446661396" style="stroke:rgb(0,0,0);stroke-width:2" />
<line x1="250" y1="250" x2="423.20508075688775" y2="150.00000000000006" style="stroke:rgb(0,0,0);stroke-width:2" />
<line x1="250" y1="250" x2="378.5575219373079" y2="96.79111137620441" style="stroke:rgb(0,0,0);stroke-width:2" />
<line x1="250" y1="250" x2="318.40402866513375" y2="62.06147584281834" style="stroke:rgb(0,0,0);stroke-width:2" />
<line x1="250" y1="250" x2="250.00000000000003" y2="50.0" style="stroke:rgb(0,0,0);stroke-width:2" />
<line x1="250" y1="250" x2="181.59597133486625" y2="62.06147584281831" style="stroke:rgb(0,0,0);stroke-width:2" />
<line x1="250" y1="250" x2="121.44247806269215" y2="96.79111137620438" style="stroke:rgb(0,0,0);stroke-width:2" />
<line x1="250" y1="250" x2="76.7949192431123" y2="149.99999999999991" style="stroke:rgb(0,0,0);stroke-width:2" />
<line x1="250" y1="250" x2="53.038449397558395" y2="215.27036446661393" style="stroke:rgb(0,0,0);stroke-width:2" />
<line x1="250" y1="250" x2="53.03844939755837" y2="284.729635533386" style="stroke:rgb(0,0,0);stroke-width:2" />
<line x1="250" y1="250" x2="76.79491924311228" y2="350.0" style="stroke:rgb(0,0,0);stroke-width:2" />
<line x1="250" y1="250" x2="121.44247806269209" y2="403.2088886237956" style="stroke:rgb(0,0,0);stroke-width:2" />
<line x1="250" y1="250" x2="181.5959713348661" y2="437.93852415718163" style="stroke:rgb(0,0,0);stroke-width:2" />

<polygon points="250.0,333.930728956958 263.98135513549,288.41345752813464 349.80940295713367,368.9482145488472 388.26014663241756,329.8245328764234 280.6857572526286,255.4107269271089 251.8366818572076,249.67614343359656 250.2676149375601,249.84549244376052 269.99900480923407,226.16611417028642 251.1004598856133,246.97651131326188 250.0,247.64511186364246 243.50230469417076,232.14772886873783 249.89397897691342,249.87364906484606 249.81363228626236,249.89240055030533 53.82968797013882,215.40988117513712 219.1683376094356,255.43645393955094 183.2405887039999,288.5435640826866 184.60171539075588,327.93864063256524 181.64425008269245,437.80587938768923 " style="fill:rgb(127,201,127);stroke:black;stroke-width:1" />
<polygon points="250.0,250.9665726943221 251.61228964290294,254.42972938749637 334.1894612416486,350.33309289330566 371.3503132711686,320.0616360333546 262.71935518548986,252.24276549641598 250.30177560779114,249.94678881822674 250.0833498609068,249.95187793536854 252.6339585637382,246.86097041892072 250.0372995086938,249.89752044210707 250.0,249.9520945995069 248.377511564768,245.5422496608739 249.976803358476,249.97235531912762 249.924213978149,249.95624491988352 53.870384281680685,215.41705703287727 230.99430616910004,253.3512166094721 202.39939307955282,277.48222321910976 201.10844390761716,308.26668762061854 182.9361146761618,434.25651058813924 " style="fill:rgb(255,255,153);stroke:black;stroke-width:1" />
<text x="230.0" y="475.0" fill="black">TMIN</text>
<text x="306.9545322482754" y="461.4308396768294" fill="black">RMIN</text>
<text x="389.62721217947137" y="422.35999970177005" fill="black">P</text>
<text x="429.85571585149864" y="362.5" fill="black">ECC</text>
<text x="456.5817444277468" y="289.07083997505936" fill="black">INC</text>
<text x="456.5817444277468" y="210.92916002494067" fill="black">LAN</text>
<text x="439.8557158514987" y="137.50000000000006" fill="black">W</text>
<text x="374.62721217947137" y="77.64000029822998" fill="black">DINC</text>
<text x="306.9545322482755" y="38.56916032317062" fill="black">DLAN</text>
<text x="240.00000000000003" y="25.0" fill="black">DW</text>
<text x="148.04546775172457" y="38.56916032317059" fill="black">D2INC</text>
<text x="80.37278782052866" y="77.64000029822992" fill="black">D2LAN</text>
<text x="40.14428414850133" y="137.4999999999999" fill="black">D2W</text>
<text x="18.4182555722532" y="210.92916002494067" fill="black">MR</text>
<text x="8.418255572253173" y="289.07083997505924" fill="black">VTCA</text>
<text x="40.14428414850133" y="362.5" fill="black">CV1</text>
<text x="90.3727878205286" y="422.35999970177" fill="black">CV2</text>
<text x="153.04546775172437" y="461.43083967682935" fill="black">BETA</text>

</svg>
